HIERARCHY
ROOT Pelvis
{
	OFFSET 0.000000 0.000000 0.000000
	CHANNELS 6 Xposition Yposition Zposition Zrotation Yrotation Xrotation 
	JOINT Left_hip
	{
		OFFSET 0.068973 -0.091024 -0.007589
		CHANNELS 3 Zrotation Yrotation Xrotation
		JOINT Left_knee
		{
			OFFSET 0.036482 -0.391037 -0.003979
			CHANNELS 3 Zrotation Yrotation Xrotation
			JOINT Left_ankle
			{
				OFFSET -0.012239 -0.415469 -0.043440
				CHANNELS 3 Zrotation Yrotation Xrotation
				JOINT Left_foot
				{
					OFFSET 0.023806 -0.058558 0.118702
					CHANNELS 3 Zrotation Yrotation Xrotation
					End Site
					{
						OFFSET 0.000000 0.000000 0.000000
					}
				}
			}
		}
	}
	JOINT Right_hip
	{
		OFFSET -0.066552 -0.090468 -0.003847
		CHANNELS 3 Zrotation Yrotation Xrotation
		JOINT Right_knee
		{
			OFFSET -0.042435 -0.398340 -0.006400
			CHANNELS 3 Zrotation Yrotation Xrotation
			JOINT Right_ankle
			{
				OFFSET 0.014931 -0.415421 -0.041327
				CHANNELS 3 Zrotation Yrotation Xrotation
				JOINT Right_foot
				{
					OFFSET -0.021472 -0.049410 0.121889
					CHANNELS 3 Zrotation Yrotation Xrotation
					End Site
					{
						OFFSET 0.000000 0.000000 0.000000
					}
				}
			}
		}
	}
	JOINT Spine1
	{
		OFFSET -0.002904 0.105700 -0.022855
		CHANNELS 3 Zrotation Yrotation Xrotation
		JOINT Spine2
		{
			OFFSET 0.004179 0.132554 -0.002501
			CHANNELS 3 Zrotation Yrotation Xrotation
			JOINT Spine3
			{
				OFFSET 0.001987 0.049603 0.025988
				CHANNELS 3 Zrotation Yrotation Xrotation
				JOINT Neck
				{
					OFFSET -0.003935 0.211336 -0.045638
					CHANNELS 3 Zrotation Yrotation Xrotation
					JOINT Head
					{
						OFFSET 0.003906 0.065991 0.051018
						CHANNELS 3 Zrotation Yrotation Xrotation
						End Site
						{
							OFFSET 0.000000 0.000000 0.000000
						}
					}
				}
				JOINT Left_collar
				{
					OFFSET 0.072882 0.117751 -0.036270
					CHANNELS 3 Zrotation Yrotation Xrotation
					JOINT Left_shoulder
					{
						OFFSET 0.082118 0.032630 -0.005771
						CHANNELS 3 Zrotation Yrotation Xrotation
						JOINT Left_elbow
						{
							OFFSET 0.263305 -0.015144 -0.028095
							CHANNELS 3 Zrotation Yrotation Xrotation
							JOINT Left_wrist
							{
								OFFSET 0.250741 0.010115 -0.000759
								CHANNELS 3 Zrotation Yrotation Xrotation
								JOINT Left_palm
								{
									OFFSET 0.080683 -0.009989 -0.013613
									CHANNELS 3 Zrotation Yrotation Xrotation
									End Site
									{
										OFFSET 0.000000 0.000000 0.000000
									}
								}
							}
						}
					}
				}
				JOINT Right_collar
				{
					OFFSET -0.074811 0.116132 -0.040385
					CHANNELS 3 Zrotation Yrotation Xrotation
					JOINT Right_shoulder
					{
						OFFSET -0.085089 0.032943 -0.007484
						CHANNELS 3 Zrotation Yrotation Xrotation
						JOINT Right_elbow
						{
							OFFSET -0.254763 -0.014219 -0.020321
							CHANNELS 3 Zrotation Yrotation Xrotation
							JOINT Right_wrist
							{
								OFFSET -0.256597 0.009233 -0.005063
								CHANNELS 3 Zrotation Yrotation Xrotation
								JOINT Right_palm
								{
									OFFSET -0.080528 -0.007219 -0.010379
									CHANNELS 3 Zrotation Yrotation Xrotation
									End Site
									{
										OFFSET 0.000000 0.000000 0.000000
									}
								}
							}
						}
					}
				}
			}
		}
	}
}
MOTION
Frames: 6
Frame Time: 0.100000
0.000000 0.000000 0.000000 -171.932406 -19.637262 -26.278163 11.179198 7.920467 12.526896 -1.994506 -0.215811 9.915106 -9.436965 11.454811 5.095166 10.457727 7.258626 -8.755882 -3.892081 -9.844277 23.878612 3.931301 -0.862790 -7.974482 5.551703 -9.188875 0.531192 -6.838934 2.312359 -0.101805 3.215901 2.737510 8.002608 -0.677723 -4.193936 11.981741 0.921165 -0.744104 2.044107 -0.246625 13.531292 16.766884 -2.757569 14.443464 12.283547 -23.922600 -8.560068 9.241522 -48.944101 -0.829850 10.305811 0.125095 -31.598399 32.948017 13.484946 -7.756980 28.788849 -12.740265 -7.185525 -24.615964 21.089954 12.379940 8.975136 47.661263 7.488014 9.086847 -1.905843 24.117133 12.363272 -12.404633 5.974131 13.296137 15.967755 8.249829 -12.943577 
-0.003338 0.002269 0.001344 -172.603378 -19.478279 -26.418216 11.454467 9.030351 17.176815 -1.096870 0.804561 3.731054 -10.480378 13.178961 5.773618 11.863717 6.981310 -9.720941 -3.646095 -9.767312 24.157598 4.271554 -0.956985 -7.698669 6.360581 -10.041474 -0.907960 -7.955818 4.899817 0.874603 3.884323 1.803393 6.367282 -0.213790 -3.985767 11.555671 0.575827 -0.891070 3.098995 1.055456 18.384816 22.290504 -3.898319 18.435274 22.330297 -23.432957 -8.075764 8.323565 -46.587286 -2.728745 10.798006 0.149535 -41.141176 33.987170 21.088656 -11.877228 31.595635 -14.558982 -8.014424 -25.627990 21.955472 10.439009 8.444486 45.870027 7.274584 9.555325 -3.096431 29.840159 10.356724 -17.707612 8.226967 12.417344 17.442232 8.302056 -13.505663 
-0.011066 0.003383 0.004449 -173.910526 -17.700993 -25.474368 11.584117 9.572958 20.258042 -1.251168 1.038204 -4.044846 -10.451539 13.211501 5.911712 11.958020 6.577720 -9.004838 -3.093799 -9.760206 23.557737 4.611401 -2.236284 -7.489443 6.167910 -10.343042 -1.955085 -7.297421 5.584664 1.988123 3.817168 1.043353 5.125490 -0.057204 -4.092979 11.483592 0.498346 -1.107722 2.942724 1.367838 18.424084 22.666663 -3.631765 17.566841 23.235956 -22.844163 -8.756939 7.809672 -45.089810 -5.257776 11.235109 1.304621 -48.372885 33.119460 22.433849 -12.878705 30.379451 -14.179442 -7.544874 -24.525184 22.232489 9.929691 8.413584 46.250776 5.933652 9.757764 -3.667942 30.198355 9.818429 -17.672038 8.333840 11.421228 16.780826 7.881005 -12.891124 
-0.020727 0.002183 0.005609 -174.502764 -16.501596 -24.666886 11.380243 8.801514 20.381171 -1.928342 0.761786 -6.204362 -10.237716 12.621858 6.132227 11.332217 6.072912 -8.127864 -2.979801 -9.588828 22.370045 4.566959 -3.358148 -6.863086 5.636778 -10.542814 -1.864080 -6.523456 5.582182 2.456013 2.982779 0.896533 4.617712 -0.030832 -4.260725 11.521275 0.545798 -1.271121 2.426267 0.765434 17.288686 20.719959 -3.113301 15.179512 21.447654 -22.056508 -9.778055 7.815304 -44.754879 -7.927505 11.589026 1.325813 -48.754132 29.336137 14.820722 -9.803356 22.199664 -11.649804 -5.827443 -20.351201 22.602524 10.331456 8.709997 47.487689 5.902745 10.591371 -3.129354 25.931932 9.787615 -10.785691 6.295054 10.231847 14.144535 6.947202 -10.906689 
-0.032976 0.000177 0.008921 -175.087705 -16.987303 -24.400534 10.755206 8.225536 20.325153 -1.815263 1.437698 -6.126966 -9.003000 12.914209 5.171677 10.218513 5.648737 -6.806811 -2.873794 -9.303757 21.835369 4.222613 -3.767370 -6.314020 5.103799 -10.117749 -0.912094 -5.464243 4.387165 2.159744 2.760336 1.181616 4.985710 -0.164513 -4.217009 12.359144 0.529648 -1.040891 1.930511 -1.359923 13.837231 16.765204 -2.818094 11.154040 15.410220 -21.684747 -10.459643 8.208414 -45.444563 -8.330542 11.410456 -0.456872 -44.919852 26.222754 5.009686 -7.177288 13.494706 -9.227811 -4.546611 -16.472380 22.401358 10.911429 9.270923 49.188262 4.702179 11.372712 -2.792779 25.366840 10.665607 -3.765780 4.754328 9.256262 12.119711 6.693723 -9.629964 
-0.047503 -0.001854 0.011234 -175.614479 -18.881047 -23.589723 10.831728 9.044460 20.216885 -2.024259 1.861539 -6.447587 -8.640724 13.052871 4.304791 9.815583 5.424792 -5.777567 -2.670660 -9.012451 20.509064 3.714370 -3.297146 -5.825586 5.231033 -9.002333 0.453104 -4.951239 2.455518 0.858561 2.689356 1.207785 6.285502 -0.656419 -4.038409 13.101416 0.491920 -0.861007 1.503923 -3.691104 7.297572 11.328633 -1.760532 5.599778 5.479083 -22.124522 -9.326522 8.362338 -46.977062 -5.415382 10.291924 0.517109 -39.532609 22.819304 8.604843 -6.480152 12.214375 -9.713935 -5.084574 -16.919428 21.802758 11.137443 8.877030 51.622007 2.895839 11.231706 -2.770745 27.553882 10.767533 -7.088827 5.008797 9.211434 12.949961 7.684222 -10.572881 
